<svg width="68" height="68" viewBox="0 0 68 68" fill="none" xmlns="http://www.w3.org/2000/svg">
<path d="M47.9586 2.50616C49.5367 4.06028 50.4345 6.17656 50.4552 8.39137C50.4759 10.6062 49.6179 12.7389 48.0691 14.3222L47.9586 14.4328C47.1895 15.2169 46.2735 15.8418 45.2629 16.2718C44.2522 16.7017 43.1667 16.9283 42.0684 16.9386C40.9702 16.9488 39.8806 16.7425 38.8621 16.3316C37.8436 15.9206 36.916 15.3129 36.1324 14.5433L36.0219 14.4328C34.4427 12.8786 33.545 10.7611 33.5262 8.54551C33.5073 6.3299 34.3689 4.19743 35.9215 2.61667L36.0219 2.50616C36.791 1.72203 37.707 1.09712 38.7177 0.667166C39.7284 0.23721 40.8138 0.0106293 41.9121 0.000365101C43.0103 -0.00989911 44.0999 0.196351 45.1184 0.607342C46.1369 1.01833 47.0645 1.626 47.8481 2.39562C47.8824 2.43493 47.9193 2.47188 47.9586 2.50616Z" fill="#F72585"/>
<path d="M2.41233 47.7511C1.64767 46.9885 1.04101 46.0825 0.627061 45.0851C0.213109 44.0877 0 43.0184 0 41.9385C0 40.8585 0.213109 39.7892 0.627061 38.7918C1.04101 37.7944 1.64767 36.8884 2.41233 36.1259L21.0106 17.5175C22.5536 15.9759 24.6457 15.1104 26.8268 15.1113C29.0078 15.1123 31.0993 15.9796 32.6409 17.5225C34.1825 19.0655 35.048 21.1576 35.0471 23.3387C35.0461 25.5198 34.1788 27.6112 32.6358 29.1528L14.0375 47.7511C13.2741 48.516 12.3673 49.1229 11.369 49.537C10.3708 49.9511 9.30067 50.1642 8.21993 50.1642C7.13919 50.1642 6.06903 49.9511 5.07077 49.537C4.0725 49.1229 3.1657 48.516 2.40227 47.7511" fill="#7209B7"/>
<path d="M19.9957 65.3446C18.8175 64.1654 18.0153 62.6633 17.6905 61.0282C17.3658 59.3931 17.5332 57.6985 18.1714 56.1585C18.8096 54.6185 19.8901 53.3023 21.2763 52.3763C22.6625 51.4503 24.292 50.9561 25.959 50.9561C27.6261 50.9561 29.2557 51.4503 30.6419 52.3763C32.028 53.3023 33.1085 54.6185 33.7467 56.1585C34.385 57.6985 34.5523 59.3931 34.2276 61.0282C33.9029 62.6633 33.1006 64.1654 31.9224 65.3446C31.1542 66.1284 30.239 66.7531 29.2291 67.183C28.2193 67.6128 27.1347 67.8393 26.0372 67.8495C24.9398 67.8598 23.8511 67.6536 22.8334 67.2428C21.8157 66.8319 20.889 66.2245 20.1063 65.4552L19.9957 65.3446Z" fill="#4CC9F0"/>
<path d="M65.5521 20.0998C67.0915 21.6426 67.956 23.733 67.956 25.9124C67.956 28.0919 67.0915 30.1823 65.5521 31.725L46.9437 50.3233C45.4021 51.8649 43.3113 52.731 41.1311 52.731C38.951 52.731 36.8601 51.8649 35.3185 50.3233C33.7769 48.7817 32.9109 46.6909 32.9109 44.5107C32.9109 42.3306 33.7769 40.2397 35.3185 38.6981L53.9168 20.0998C54.6794 19.3352 55.5853 18.7285 56.5828 18.3145C57.5802 17.9006 58.6495 17.6875 59.7294 17.6875C60.8093 17.6875 61.8787 17.9006 62.8761 18.3145C63.8735 18.7285 64.7794 19.3352 65.542 20.0998" fill="#4E47EA"/>
</svg>
